<svg xmlns="http://www.w3.org/2000/svg" viewBox="0 0 128 128">
  <defs>
    <linearGradient id="bg" x1="0" y1="0" x2="1" y2="1">
      <stop offset="0%" stop-color="#0078d4"/>
      <stop offset="100%" stop-color="#005a9e"/>
    </linearGradient>
  </defs>
  <!-- Background -->
  <rect width="128" height="128" rx="20" fill="url(#bg)"/>
  <!-- Shield -->
  <path d="M64 18L30 32v22c0 22 14.5 42.5 34 48 19.5-5.5 34-26 34-48V32L64 18z" fill="white" opacity="0.15"/>
  <path d="M64 24L36 36v18c0 18.5 12 35.5 28 40 16-4.5 28-21.5 28-40V36L64 24z" fill="none" stroke="white" stroke-width="2.5"/>
  <!-- Network nodes -->
  <circle cx="52" cy="52" r="6" fill="white" opacity="0.9"/>
  <circle cx="76" cy="52" r="6" fill="white" opacity="0.9"/>
  <circle cx="64" cy="72" r="6" fill="white" opacity="0.9"/>
  <!-- Connection lines -->
  <line x1="52" y1="58" x2="64" y2="66" stroke="white" stroke-width="2" opacity="0.7"/>
  <line x1="76" y1="58" x2="64" y2="66" stroke="white" stroke-width="2" opacity="0.7"/>
  <line x1="58" y1="52" x2="70" y2="52" stroke="white" stroke-width="2" opacity="0.7"/>
  <!-- Checkmark -->
  <path d="M56 52l5 5 11-11" fill="none" stroke="#50e6ff" stroke-width="3" stroke-linecap="round" stroke-linejoin="round"/>
</svg>
